<svg width="1200" height="840" viewBox="0 0 1200 840" fill="none" xmlns="http://www.w3.org/2000/svg">
  <rect width="1200" height="840" fill="#F5EFEB"/>
  <rect x="74" y="74" width="1052" height="692" rx="44" fill="#171010"/>
  <path d="M310 462C372.707 372.526 475.27 319.429 584.525 319.429H640.475C749.73 319.429 852.293 372.526 915 462V526H310V462Z" fill="#8B665E"/>
  <path d="M424 226C463.62 194.701 514.108 179.866 564.611 184.793L649.593 193.084C695.002 197.515 732.826 229.948 742.999 273.623L779 430H411L424 226Z" fill="#E5C7CA"/>
  <path d="M495 428H728V525C728 557.585 701.585 584 669 584H554C521.415 584 495 557.585 495 525V428Z" fill="#F8F4F2"/>
  <circle cx="866" cy="222" r="48" fill="#E5C7CA"/>
</svg>
