<svg width="860" height="940" viewBox="0 0 860 940" fill="none" xmlns="http://www.w3.org/2000/svg">
  <rect width="860" height="940" fill="#120E0E"/>
  <rect width="860" height="940" fill="url(#paint0_radial_1_2)"/>
  <rect x="44" y="42" width="772" height="856" rx="42" fill="url(#paint1_linear_1_2)" fill-opacity="0.45"/>
  <path d="M548 130C633.052 130 702 198.948 702 284V622C702 707.052 633.052 776 548 776H338C252.948 776 184 707.052 184 622V284C184 198.948 252.948 130 338 130H548Z" fill="url(#paint2_linear_1_2)"/>
  <path d="M468 188C526.541 188 574 235.459 574 294V618C574 676.541 526.541 724 468 724H418C359.459 724 312 676.541 312 618V294C312 235.459 359.459 188 418 188H468Z" fill="#1E1717"/>
  <path d="M345 374C394.138 336.388 465.592 332.056 519 367L560 394L611 398C620.941 398.78 628.27 407.466 627.49 417.407C627.222 420.824 626.003 424.098 623.972 426.861L593 469L589 563C588.638 571.513 581.443 578.25 572.93 577.887C571.669 577.834 570.416 577.628 569.208 577.273L476 549L360 574C351.902 575.744 343.914 570.588 342.17 562.49C341.911 561.286 341.801 560.054 341.842 558.822L345 470L263 425C254.472 420.32 251.354 409.627 256.034 401.099C257.519 398.392 259.688 396.119 262.324 394.509L345 374Z" fill="url(#paint3_linear_1_2)"/>
  <path d="M559 320C590.48 320 616 345.52 616 377C616 408.48 590.48 434 559 434C527.52 434 502 408.48 502 377C502 345.52 527.52 320 559 320Z" fill="#D0AEB1"/>
  <path d="M284 430C332.601 430 372 469.399 372 518C372 566.601 332.601 606 284 606C235.399 606 196 566.601 196 518C196 469.399 235.399 430 284 430Z" fill="#A87D67" fill-opacity="0.72"/>
  <path d="M301 254C336.346 222.684 386.185 210.381 432.554 221.081L494.402 235.353C524.908 242.392 547.101 269.095 548.374 300.374L554 439H311L301 254Z" fill="#3D302F"/>
  <path d="M371 468H575V675C575 692.673 560.673 707 543 707H403C385.327 707 371 692.673 371 675V468Z" fill="#E6C7CA"/>
  <path d="M267 525C299.585 525 326 551.415 326 584V744H208V584C208 551.415 234.415 525 267 525Z" fill="#F1E8E2"/>
  <path d="M602 210L682 238L708 342L626 312L602 210Z" fill="#8D6563"/>
  <circle cx="631" cy="263" r="16" fill="#F4EEEB"/>
  <defs>
    <radialGradient id="paint0_radial_1_2" cx="0" cy="0" r="1" gradientUnits="userSpaceOnUse" gradientTransform="translate(688 116) rotate(130.356) scale(892.882 777.872)">
      <stop stop-color="#E5C7CA"/>
      <stop offset="1" stop-color="#120E0E" stop-opacity="0"/>
    </radialGradient>
    <linearGradient id="paint1_linear_1_2" x1="139.5" y1="100" x2="775.5" y2="850" gradientUnits="userSpaceOnUse">
      <stop stop-color="#F3EBE7" stop-opacity="0.42"/>
      <stop offset="1" stop-color="#8D6563" stop-opacity="0.12"/>
    </linearGradient>
    <linearGradient id="paint2_linear_1_2" x1="443" y1="130" x2="443" y2="776" gradientUnits="userSpaceOnUse">
      <stop stop-color="#5C4641"/>
      <stop offset="1" stop-color="#221A1A"/>
    </linearGradient>
    <linearGradient id="paint3_linear_1_2" x1="437.5" y1="344" x2="437.5" y2="579" gradientUnits="userSpaceOnUse">
      <stop stop-color="#8E685F"/>
      <stop offset="1" stop-color="#D8B5A1"/>
    </linearGradient>
  </defs>
</svg>
