<svg width="900" height="640" viewBox="0 0 900 640" fill="none" xmlns="http://www.w3.org/2000/svg">
  <rect width="900" height="640" fill="#F6F0EC"/>
  <rect x="54" y="54" width="792" height="532" rx="36" fill="url(#paint0_linear_1_18)"/>
  <circle cx="645" cy="178" r="64" fill="#E5C7CA"/>
  <path d="M210 470C263.872 390.777 352.644 343 448.434 343H501.566C597.356 343 686.128 390.777 740 470V522H210V470Z" fill="#8D675E"/>
  <path d="M316 228C351.668 199.789 397.112 186.415 442.409 190.833L518.572 198.262C559.268 202.231 593.164 231.257 602.287 270.43L635 411H304L316 228Z" fill="#271D1D"/>
  <path d="M380 408H594V497C594 526.823 569.823 551 540 551H434C404.177 551 380 526.823 380 497V408Z" fill="#EAD6D1"/>
  <defs>
    <linearGradient id="paint0_linear_1_18" x1="450" y1="54" x2="450" y2="586" gradientUnits="userSpaceOnUse">
      <stop stop-color="#221919"/>
      <stop offset="1" stop-color="#4A3734"/>
    </linearGradient>
  </defs>
</svg>
