<svg width="900" height="720" viewBox="0 0 900 720" fill="none" xmlns="http://www.w3.org/2000/svg">
  <rect width="900" height="720" fill="#F3ECE7"/>
  <rect x="48" y="48" width="804" height="624" rx="40" fill="#1A1313"/>
  <path d="M217 426C271.574 356.355 355.372 315 443.848 315H482.264C574.367 315 659.604 359.657 714 434L737 466H194L217 426Z" fill="#8D675E"/>
  <path d="M303 232C339.324 202.813 385.594 189.022 432.009 193.622L507.781 201.13C548.516 205.167 582.243 234.791 591.474 274.698L637 471H285L303 232Z" fill="#2B2020"/>
  <path d="M363 465H600V566C600 595.823 575.823 620 546 620H417C387.177 620 363 595.823 363 566V465Z" fill="#E5C7CA"/>
  <path d="M229 453C264.899 453 294 482.101 294 518V620H164V518C164 482.101 193.101 453 229 453Z" fill="#F6F0EC"/>
  <circle cx="680" cy="285" r="42" fill="#D9B5A0"/>
</svg>
