<svg width="900" height="720" viewBox="0 0 900 720" fill="none" xmlns="http://www.w3.org/2000/svg">
  <rect width="900" height="720" fill="#F7F2EF"/>
  <rect x="64" y="64" width="772" height="592" rx="40" fill="url(#paint0_linear_1_8)"/>
  <path d="M458 144C530.35 144 589 202.65 589 275V322C589 394.35 530.35 453 458 453C385.65 453 327 394.35 327 322V275C327 202.65 385.65 144 458 144Z" stroke="#E5C7CA" stroke-width="28"/>
  <path d="M458 219C495.555 219 526 249.445 526 287V516C526 553.555 495.555 584 458 584C420.445 584 390 553.555 390 516V287C390 249.445 420.445 219 458 219Z" stroke="#B78473" stroke-width="26"/>
  <path d="M307 291H611" stroke="#F4EEEB" stroke-width="18" stroke-linecap="round"/>
  <path d="M310 420L418 512" stroke="#D4A99A" stroke-width="20" stroke-linecap="round"/>
  <path d="M607 420L499 512" stroke="#D4A99A" stroke-width="20" stroke-linecap="round"/>
  <circle cx="458" cy="287" r="46" fill="#F7F2EF" stroke="#E5C7CA" stroke-width="16"/>
  <circle cx="458" cy="287" r="15" fill="#2B2020"/>
  <defs>
    <linearGradient id="paint0_linear_1_8" x1="450" y1="64" x2="450" y2="656" gradientUnits="userSpaceOnUse">
      <stop stop-color="#231919"/>
      <stop offset="1" stop-color="#4A3835"/>
    </linearGradient>
  </defs>
</svg>
