<svg width="256" height="256" viewBox="0 0 256 256" fill="none" xmlns="http://www.w3.org/2000/svg">
  <rect width="256" height="256" rx="64" fill="#E5C7CA"/>
  <path
    d="M196.32 65.9855C197.871 63.813 200.83 63.3114 203.001 64.865L226.118 81.3972C228.288 82.9504 228.85 85.9339 227.371 88.1549L197.467 133.049C196.118 135.075 193.42 135.646 191.375 134.327L174.061 123.161C171.504 121.513 171.761 117.698 174.524 116.42L175.604 115.92C162.793 110.647 148.765 107.884 134.528 107.884C104.456 107.884 80.084 132.299 80.084 162.424C80.084 192.548 104.456 216.964 134.528 216.964C148.765 216.964 162.793 214.2 175.604 208.928L174.524 208.428C171.761 207.149 171.504 203.334 174.061 201.686L191.375 190.521C193.42 189.201 196.118 189.772 197.467 191.798L227.371 236.692C228.85 238.913 228.288 241.896 226.118 243.45L203.001 259.982C200.83 261.535 197.871 261.034 196.32 258.861L186.177 244.649C170.497 251.919 152.821 255.732 134.528 255.732C83.0428 255.732 41.3 213.916 41.3 162.424C41.3 110.931 83.0428 69.1152 134.528 69.1152C152.821 69.1152 170.497 72.9281 186.177 80.1984L196.32 65.9855Z"
    fill="#110C0C"
    transform="translate(-6 -34) scale(0.92)"
  />
  <rect x="72" y="122" width="14" height="38" rx="7" fill="#E5C7CA"/>
  <rect x="83.96" y="92.8959" width="14" height="27" rx="7" transform="rotate(-50.3786 83.96 92.8959)" fill="#E5C7CA"/>
  <rect x="110.631" y="68.4734" width="14" height="24" rx="7" transform="rotate(-29.1036 110.631 68.4734)" fill="#E5C7CA"/>
  <rect x="145.556" y="57.2381" width="14" height="24" rx="7" transform="rotate(7.22898 145.556 57.2381)" fill="#E5C7CA"/>
  <rect x="177.578" y="69.5062" width="14" height="24" rx="7" transform="rotate(17.0576 177.578 69.5062)" fill="#E5C7CA"/>
  <rect x="175.546" y="183.798" width="14" height="24" rx="7" transform="rotate(72.9424 175.546 183.798)" fill="#E5C7CA"/>
  <rect x="144.507" y="197.976" width="14" height="24" rx="7" transform="rotate(82.771 144.507 197.976)" fill="#E5C7CA"/>
  <rect x="110.09" y="191.522" width="14" height="24" rx="7" transform="rotate(29.1036 110.09 191.522)" fill="#E5C7CA"/>
  <rect x="84.8687" y="165.629" width="14" height="27" rx="7" transform="rotate(50.3786 84.8687 165.629)" fill="#E5C7CA"/>
</svg>
